<?xml version="1.0" encoding="UTF-8" standalone="no"?>
<!DOCTYPE svg PUBLIC "-//W3C//DTD SVG 1.1//EN" "http://www.w3.org/Graphics/SVG/1.1/DTD/svg11.dtd">
<svg xmlns="http://www.w3.org/2000/svg" version="1.1" viewBox="0.00 0.00 433.00 322.00">
<path fill="#ff0000" d="
  M 334.33 152.36
  A 127.34 127.34 0.0 0 1 206.99 279.70
  A 127.34 127.34 0.0 0 1 79.65 152.36
  A 127.34 127.34 0.0 0 1 206.99 25.02
  A 127.34 127.34 0.0 0 1 334.33 152.36
  Z
  M 298.71 152.37
  A 91.73 91.73 0.0 0 0 206.98 60.64
  A 91.73 91.73 0.0 0 0 115.25 152.37
  A 91.73 91.73 0.0 0 0 206.98 244.10
  A 91.73 91.73 0.0 0 0 298.71 152.37
  Z"
/>
<path fill="#ff0000" d="
  M 255.0682 179.9660
  A 8.21 8.21 0.0 0 1 246.8726 188.1903
  L 167.0327 188.3296
  A 8.21 8.21 0.0 0 1 158.8084 180.1340
  L 158.7118 124.7940
  A 8.21 8.21 0.0 0 1 166.9074 116.5697
  L 246.7473 116.4304
  A 8.21 8.21 0.0 0 1 254.9716 124.6260
  L 255.0682 179.9660
  Z
  M 166.56 123.81
  A 0.72 0.72 0.0 0 0 165.89 124.52
  L 165.72 132.01
  A 0.72 0.72 0.0 0 0 166.44 132.75
  L 174.28 132.75
  A 0.72 0.72 0.0 0 0 175.00 132.03
  L 174.99 123.99
  A 0.72 0.72 0.0 0 0 174.22 123.27
  L 166.56 123.81
  Z
  M 231.99 123.94
  A 0.44 0.44 0.0 0 0 231.55 123.50
  L 182.45 123.50
  A 0.44 0.44 0.0 0 0 182.01 123.94
  L 182.01 180.78
  A 0.44 0.44 0.0 0 0 182.45 181.22
  L 231.55 181.22
  A 0.44 0.44 0.0 0 0 231.99 180.78
  L 231.99 123.94
  Z
  M 247.9124 123.8020
  A 0.26 0.26 0.0 0 0 247.6520 123.5425
  L 239.0120 123.5575
  A 0.26 0.26 0.0 0 0 238.7524 123.8180
  L 238.7676 132.4980
  A 0.26 0.26 0.0 0 0 239.0280 132.7575
  L 247.6680 132.7425
  A 0.26 0.26 0.0 0 0 247.9276 132.4820
  L 247.9124 123.8020
  Z
  M 174.9923 139.8319
  A 0.34 0.34 0.0 0 0 174.6517 139.4925
  L 166.0917 139.5075
  A 0.34 0.34 0.0 0 0 165.7523 139.8481
  L 165.7677 148.6681
  A 0.34 0.34 0.0 0 0 166.1083 149.0075
  L 174.6683 148.9925
  A 0.34 0.34 0.0 0 0 175.0077 148.6519
  L 174.9923 139.8319
  Z
  M 247.9924 139.8619
  A 0.38 0.38 0.0 0 0 247.6117 139.4826
  L 239.1317 139.4974
  A 0.38 0.38 0.0 0 0 238.7524 139.8781
  L 238.7676 148.6181
  A 0.38 0.38 0.0 0 0 239.1483 148.9974
  L 247.6283 148.9826
  A 0.38 0.38 0.0 0 0 248.0076 148.6019
  L 247.9924 139.8619
  Z
  M 175.00 156.07
  A 0.31 0.31 0.0 0 0 174.69 155.76
  L 166.07 155.76
  A 0.31 0.31 0.0 0 0 165.76 156.07
  L 165.76 164.69
  A 0.31 0.31 0.0 0 0 166.07 165.00
  L 174.69 165.00
  A 0.31 0.31 0.0 0 0 175.00 164.69
  L 175.00 156.07
  Z
  M 248.0074 156.1081
  A 0.35 0.35 0.0 0 0 247.6581 155.7575
  L 239.1181 155.7426
  A 0.35 0.35 0.0 0 0 238.7675 156.0919
  L 238.7526 164.6319
  A 0.35 0.35 0.0 0 0 239.1019 164.9825
  L 247.6419 164.9974
  A 0.35 0.35 0.0 0 0 247.9925 164.6481
  L 248.0074 156.1081
  Z
  M 165.90 180.44
  A 0.69 0.69 0.0 0 0 166.58 181.11
  L 174.30 181.28
  A 0.69 0.69 0.0 0 0 175.00 180.59
  L 175.00 172.70
  A 0.69 0.69 0.0 0 0 174.31 172.01
  L 166.38 172.00
  A 0.69 0.69 0.0 0 0 165.69 172.71
  L 165.90 180.44
  Z
  M 239.28 172.00
  A 0.52 0.52 0.0 0 0 238.76 172.52
  L 238.77 180.79
  A 0.52 0.52 0.0 0 0 239.30 181.31
  L 247.56 181.07
  A 0.52 0.52 0.0 0 0 248.07 180.57
  L 248.32 172.55
  A 0.52 0.52 0.0 0 0 247.80 172.01
  L 239.28 172.00
  Z"
/>
<path fill="#ff0000" d="
  M 201.10 141.44
  L 216.01 152.14
  A 1.80 1.80 0.0 0 1 216.01 155.06
  L 201.10 165.76
  A 1.80 1.80 0.0 0 1 198.25 164.30
  L 198.25 142.90
  A 1.80 1.80 0.0 0 1 201.10 141.44
  Z"
/>
</svg>
