<?xml version="1.0" encoding="UTF-8" standalone="no"?>
<!DOCTYPE svg PUBLIC "-//W3C//DTD SVG 1.1//EN" "http://www.w3.org/Graphics/SVG/1.1/DTD/svg11.dtd">
<svg xmlns="http://www.w3.org/2000/svg" version="1.1" viewBox="0.00 0.00 360.00 360.00">
<path fill="#231f20" d="
  M 192.24 144.71
  Q 192.57 144.37 192.70 143.73
  C 197.36 119.41 203.33 93.21 233.56 90.43
  C 237.02 90.12 248.68 89.06 251.08 91.44
  Q 268.93 109.15 286.96 126.66
  Q 287.63 127.32 286.69 127.29
  C 281.10 127.12 276.65 126.70 270.00 127.18
  C 245.96 128.92 236.48 147.91 231.94 168.75
  Q 229.08 181.88 225.64 201.04
  C 223.73 211.69 219.64 225.67 211.68 234.50
  Q 209.51 236.91 203.08 241.68
  C 197.15 246.07 191.33 252.20 186.38 255.79
  C 136.79 291.75 68.20 253.95 72.60 193.00
  C 75.39 154.26 109.25 124.28 148.49 127.12
  Q 172.37 128.84 191.44 144.75
  Q 191.86 145.09 192.24 144.71
  Z
  M 250.51 98.32
  A 0.88 0.88 0.0 0 0 251.08 96.80
  L 247.07 93.04
  A 0.88 0.88 0.0 0 0 246.48 92.81
  L 238.29 92.75
  A 0.88 0.88 0.0 0 0 237.62 94.21
  L 241.27 98.35
  A 0.88 0.88 0.0 0 0 241.97 98.64
  L 250.51 98.32
  Z
  M 234.02 100.02
  A 1.26 1.26 0.0 0 0 234.42 97.93
  L 230.82 94.56
  A 1.26 1.26 0.0 0 0 229.60 94.27
  L 223.91 95.95
  A 1.26 1.26 0.0 0 0 223.36 98.04
  L 227.10 101.91
  A 1.26 1.26 0.0 0 0 228.46 102.21
  L 234.02 100.02
  Z
  M 218.8006 100.1041
  A 1.30 1.30 0.0 0 0 216.9628 100.0528
  L 213.0829 103.7218
  A 1.30 1.30 0.0 0 0 213.0316 105.5596
  L 216.6594 109.3959
  A 1.30 1.30 0.0 0 0 218.4972 109.4472
  L 222.3771 105.7782
  A 1.30 1.30 0.0 0 0 222.4284 103.9404
  L 218.8006 100.1041
  Z
  M 209.15 119.79
  A 1.45 1.45 0.0 0 0 211.46 119.47
  L 214.06 114.73
  A 1.45 1.45 0.0 0 0 213.80 112.99
  L 210.35 109.68
  A 1.45 1.45 0.0 0 0 208.09 110.00
  L 205.47 114.51
  A 1.45 1.45 0.0 0 0 205.69 116.26
  L 209.15 119.79
  Z
  M 275.35 123.00
  A 0.82 0.82 0.0 0 0 275.89 121.58
  L 271.74 117.74
  A 0.82 0.82 0.0 0 0 271.19 117.52
  L 262.77 117.45
  A 0.82 0.82 0.0 0 0 262.16 118.83
  L 266.02 122.96
  A 0.82 0.82 0.0 0 0 266.64 123.22
  L 275.35 123.00
  Z
  M 255.43 119.13
  A 1.22 1.22 0.0 0 0 254.22 118.85
  L 248.41 120.68
  A 1.22 1.22 0.0 0 0 247.92 122.71
  L 251.81 126.61
  A 1.22 1.22 0.0 0 0 253.11 126.88
  L 258.73 124.69
  A 1.22 1.22 0.0 0 0 259.13 122.68
  L 255.43 119.13
  Z
  M 200.42 128.07
  A 1.16 1.16 0.0 0 0 200.71 129.25
  L 204.37 132.80
  A 1.16 1.16 0.0 0 0 206.28 132.34
  L 208.31 126.30
  A 1.16 1.16 0.0 0 0 208.02 125.10
  L 204.27 121.44
  A 1.16 1.16 0.0 0 0 202.35 121.92
  L 200.42 128.07
  Z
  M 243.66 125.00
  A 1.62 1.62 0.0 0 0 241.49 124.94
  L 237.85 128.04
  A 1.62 1.62 0.0 0 0 237.73 130.39
  L 241.07 133.94
  A 1.62 1.62 0.0 0 0 243.37 134.00
  L 247.00 130.54
  A 1.62 1.62 0.0 0 0 247.00 128.20
  L 243.66 125.00
  Z
  M 233.96 144.43
  A 1.40 1.40 0.0 0 0 236.13 144.10
  L 238.81 139.41
  A 1.40 1.40 0.0 0 0 238.58 137.72
  L 235.00 134.15
  A 1.40 1.40 0.0 0 0 232.80 134.45
  L 230.02 139.26
  A 1.40 1.40 0.0 0 0 230.27 140.98
  L 233.96 144.43
  Z
  M 196.95 142.50
  A 1.11 1.11 0.0 0 0 197.24 143.47
  L 200.92 147.34
  A 1.11 1.11 0.0 0 0 202.81 146.81
  L 204.29 139.89
  A 1.11 1.11 0.0 0 0 203.96 138.84
  L 200.08 135.25
  A 1.11 1.11 0.0 0 0 198.23 135.85
  L 196.95 142.50
  Z
  M 183.34 161.91
  A 16.58 16.58 0.0 0 0 166.76 145.33
  A 16.58 16.58 0.0 0 0 150.18 161.91
  A 16.58 16.58 0.0 0 0 166.76 178.49
  A 16.58 16.58 0.0 0 0 183.34 161.91
  Z
  M 229.13 157.55
  A 1.16 1.16 0.0 0 0 231.05 157.07
  L 232.97 151.02
  A 1.16 1.16 0.0 0 0 232.69 149.86
  L 228.96 146.06
  A 1.16 1.16 0.0 0 0 227.03 146.52
  L 225.07 152.67
  A 1.16 1.16 0.0 0 0 225.36 153.85
  L 229.13 157.55
  Z
  M 132.20 170.04
  A 16.62 16.62 0.0 0 0 115.58 153.42
  A 16.62 16.62 0.0 0 0 98.96 170.04
  A 16.62 16.62 0.0 0 0 115.58 186.66
  A 16.62 16.62 0.0 0 0 132.20 170.04
  Z
  M 224.89 159.76
  A 1.09 1.09 0.0 0 0 223.03 160.27
  L 221.57 167.04
  A 1.09 1.09 0.0 0 0 221.86 168.03
  L 225.64 171.87
  A 1.09 1.09 0.0 0 0 227.48 171.32
  L 228.86 164.69
  A 1.09 1.09 0.0 0 0 228.59 163.73
  L 224.89 159.76
  Z
  M 225.84 179.44
  A 0.92 0.92 0.0 0 0 225.59 178.64
  L 221.64 174.56
  A 0.92 0.92 0.0 0 0 220.07 175.04
  L 218.80 182.30
  A 0.92 0.92 0.0 0 0 219.05 183.11
  L 222.98 187.10
  A 0.92 0.92 0.0 0 0 224.54 186.61
  L 225.84 179.44
  Z
  M 223.02 194.57
  A 1.10 1.10 0.0 0 0 222.74 193.58
  L 219.02 189.62
  A 1.10 1.10 0.0 0 0 217.14 190.15
  L 215.73 196.89
  A 1.10 1.10 0.0 0 0 216.02 197.88
  L 219.71 201.67
  A 1.10 1.10 0.0 0 0 221.58 201.14
  L 223.02 194.57
  Z
  M 206.93 208.13
  A 16.59 16.59 0.0 0 0 190.34 191.54
  A 16.59 16.59 0.0 0 0 173.75 208.13
  A 16.59 16.59 0.0 0 0 190.34 224.72
  A 16.59 16.59 0.0 0 0 206.93 208.13
  Z
  M 148.51 198.27
  A 4.71 4.71 0.0 0 0 143.80 193.56
  A 4.71 4.71 0.0 0 0 139.09 198.27
  A 4.71 4.71 0.0 0 0 143.80 202.98
  A 4.71 4.71 0.0 0 0 148.51 198.27
  Z
  M 124.16 221.18
  A 16.60 16.60 0.0 0 0 107.56 204.58
  A 16.60 16.60 0.0 0 0 90.96 221.18
  A 16.60 16.60 0.0 0 0 107.56 237.78
  A 16.60 16.60 0.0 0 0 124.16 221.18
  Z
  M 213.90 213.20
  A 1.02 1.02 0.0 0 0 214.19 214.08
  L 215.78 215.68
  A 1.02 1.02 0.0 0 0 217.48 215.26
  L 219.41 208.98
  A 1.02 1.02 0.0 0 0 219.20 208.01
  L 216.85 205.32
  A 1.02 1.02 0.0 0 0 215.08 205.84
  L 213.90 213.20
  Z
  M 214.3001 221.3479
  A 1.14 1.14 0.0 0 0 213.6779 219.8606
  L 213.5854 219.8226
  A 1.14 1.14 0.0 0 0 212.0981 220.4448
  L 209.6999 226.2921
  A 1.14 1.14 0.0 0 0 210.3221 227.7794
  L 210.4146 227.8174
  A 1.14 1.14 0.0 0 0 211.9019 227.1952
  L 214.3001 221.3479
  Z
  M 170.26 244.71
  A 16.56 16.56 0.0 0 0 153.70 228.15
  A 16.56 16.56 0.0 0 0 137.14 244.71
  A 16.56 16.56 0.0 0 0 153.70 261.27
  A 16.56 16.56 0.0 0 0 170.26 244.71
  Z"
/>
</svg>
